<svg id="visual" viewBox="0 0 1920 200" width="1920" height="200" xmlns="http://www.w3.org/2000/svg" xmlns:xlink="http://www.w3.org/1999/xlink" version="1.1"><rect x="0" y="0" width="1920" height="200" fill="#101010"></rect><path d="M0 26L53.3 38.8C106.7 51.7 213.3 77.3 320 93.8C426.7 110.3 533.3 117.7 640 108.7C746.7 99.7 853.3 74.3 960 81.7C1066.7 89 1173.3 129 1280 140.8C1386.7 152.7 1493.3 136.3 1600 126.7C1706.7 117 1813.3 114 1866.7 112.5L1920 111L1920 201L1866.7 201C1813.3 201 1706.7 201 1600 201C1493.3 201 1386.7 201 1280 201C1173.3 201 1066.7 201 960 201C853.3 201 746.7 201 640 201C533.3 201 426.7 201 320 201C213.3 201 106.7 201 53.3 201L0 201Z" fill="#161616" stroke-linecap="round" stroke-linejoin="miter"></path></svg>