<svg id="visual" viewBox="0 0 1920 1080" width="1920" height="1080" xmlns="http://www.w3.org/2000/svg" xmlns:xlink="http://www.w3.org/1999/xlink" version="1.1"><rect x="0" y="0" width="1920" height="1080" fill="#101010"></rect><g fill="none" stroke="#00d6ef" stroke-width="4"><path d="M0 -59.5L13.3 -18.4L56.6 -18.4L21.6 7L35 48.1L0 22.7L-35 48.1L-21.6 7L-56.6 -18.4L-13.3 -18.4Z" transform="translate(523 233)"></path><path d="M0 -55.7L12.5 -17.2L53 -17.2L20.2 6.6L32.7 45.1L0 21.3L-32.7 45.1L-20.2 6.6L-53 -17.2L-12.5 -17.2Z" transform="translate(1726 740)"></path><path d="M0 -55.7L12.5 -17.2L53 -17.2L20.2 6.6L32.7 45.1L0 21.3L-32.7 45.1L-20.2 6.6L-53 -17.2L-12.5 -17.2Z" transform="translate(1462 198)"></path><path d="M0 -54.7L12.3 -16.9L52.1 -16.9L19.9 6.5L32.2 44.3L0 20.9L-32.2 44.3L-19.9 6.5L-52.1 -16.9L-12.3 -16.9Z" transform="translate(1067 543)"></path></g></svg>